<svg xmlns="http://www.w3.org/2000/svg" viewBox="0 0 2048 2048"><path fill="#0f0" d="m875.749 1410.67-379.296.07c-18.615.01-39.515.7-57.804-1.58-69.836-8.7-85.253-62.61-84.942-120.9l.094-681.005c-.061-68.474 4.007-121.581 85.25-136.352 21.261-1.234 52.986.012 75.511.014l1039.688-.072c19.27-.009 39.48-.746 59.02 1.363 77.8 8.394 84.47 77.672 84.41 136.959l-.02 674.203c.08 113.8-39.48 127.47-137.07 127.36l-356.05.01c-5.35.03-29.79-1.12-33.03 1.36l.33 3.12c9.93 40.46 22.54 80.66 31.63 121.67l59.53-.11c10.98-.01 35.2-1.78 44.02 4.39 12.09 8.45 8.55 30.69-7.63 33.15-9.73 1.48-18.34.68-28.32.65l-412.259.05c-13.36.01-165.733 13.95-121.396-32.98 6.845-7.25 37.324-5.22 47.169-5.22l59.788.07c11.13-34.65 22.552-89.57 31.377-126.22M448.426 509.32c-60.262 5.963-56.517 51.623-56.48 97.714l-.013 670.716c.091 94.99 24.971 94.37 110.769 94.29l1100.538-.06c62.78-6.51 54.99-55.9 54.91-102.39l.01-675.491c-.07-84.537-27.22-84.914-102.44-84.86zm524.064 901.35h-57.8c-7.519 38.32-20.749 87.69-30.307 126.22H1164.8c-8.74-41.75-25.64-85.87-32.39-126.22z"/><path fill="#0f0" d="m1575.36 1254.03-1074.552.04c-29.77.01-64.792 9.61-65.441-32.06-.679-43.61-.313-87.39-.303-131.01l-.031-416.955c-.005-46.58-17.12-117.447 43.764-120.452 18.462-.747 42.449-.023 61.255-.017l971.088-.02c31.95-.007 98.08-12.208 100.52 29.623 1.64 28.136.99 56.52.99 84.721l.02 501.28c0 34.04 9.25 80.47-37.31 84.85M473.3 592.648c-.912 2.642-.002 106.061-.002 116.317l.002 507.755 1062.7.03c11.34.01 28.35.57 39.36-.03V592.648c-79.6-.959-161.11-.002-240.9 0l-820.561-.066c-10.739-.018-30.408-.683-40.599.066"/><path fill="#0f0" d="m1053.33 988.587-56.216 30.663c-23.774 13.26-51.836 34.06-79.667 20.63-18.386-8.88-26.839-22.78-27.032-42.812-.581-60.157-1.013-120.5.204-180.634.457-22.148 16.199-37.125 36.417-43.196 24.364-1.474 34.836 9.072 55.236 20.504l59.648 33.013c58.47 32.421 171.39 73.26 58.49 135.817zM932.214 808.584c-7.457 9.443-5.158 23.174-5.179 35.126l-.026 114.443c.007 10.174-1.145 39.842 2.974 47.867 11.133 8.35 101.427-48.2 116.617-57.101 18.58-10.395 80.57-30.859 52.07-47.184L992.259 841.77c-12.75-7.116-50.065-29.315-60.045-33.186m-215.402 64.779c-32.946 5.853-34.725-64-9.754-75.31 31.32-2.764 30.402 65.323 9.754 75.31m624.538 7.841c-34.54 6.082-30.9-66.556-12.65-76.085 35.06-3.299 26.31 41.896 25.15 68.244-4.31 3.649-7.58 5.168-12.5 7.841M713.805 1004.41c-30.784 5.48-29.426-66.905-6.747-76.299 13.546-.761 16.041 3.004 22.681 14.014-.066 16.806.629 34.394 0 51.034-5.595 6.552-7.964 8.011-15.934 11.251m627.545 14.7c-37.27-.87-31.43-69.303-8.99-76.985 30.18-1.198 22.16 44.422 21.49 66.035-4.18 5.39-6.23 8.36-12.5 10.95m-350.463 312.8c-15.781-12-19.773-26.66 0-37.06 21.383-.89 47.983-.07 69.703 0 15.55 10.45 18.08 27.73 0 37.06-22.45 2.13-47.13.3-69.703 0"/></svg>